{
  "accessors": [
    {
      "bufferView": 2,
      "componentType": 5126,
      "count": 2977,
      "max": [
        7.02654504776001,
        -102.59393310546875,
        4.436498165130615
      ],
      "min": [
        -7.026546001434326,
        -116.55635070800781,
        -7.671833038330078
      ],
      "type": "VEC3"
    },
    {
      "bufferView": 2,
      "byteOffset": 35724,
      "componentType": 5126,
      "count": 2977,
      "max": [
        0.9994522929191589,
        0.9999246597290039,
        0.996485710144043
      ],
      "min": [
        -0.9994279742240906,
        -0.9999297857284546,
        -0.9999589323997498
      ],
      "type": "VEC3"
    },
    {
      "bufferView": 1,
      "componentType": 5126,
      "count": 2977,
      "max": [
        0.9916989803314209,
        1.988387942314148
      ],
      "min": [
        0.007468999829143286,
        1.0141600370407104
      ],
      "type": "VEC2"
    },
    {
      "bufferView": 0,
      "componentType": 5125,
      "count": 15072,
      "type": "SCALAR"
    },
    {
      "bufferView": 2,
      "byteOffset": 71448,
      "componentType": 5126,
      "count": 548,
      "max": [
        0.0882280021905899,
        -108.07400512695313,
        -1.2488139867782593
      ],
      "min": [
        -4.581995964050293,
        -112.73059844970703,
        -5.870631217956543
      ],
      "type": "VEC3"
    },
    {
      "bufferView": 2,
      "byteOffset": 78024,
      "componentType": 5126,
      "count": 548,
      "max": [
        0.9979746341705322,
        0.9983635544776917,
        0.9987859129905701
      ],
      "min": [
        -0.9991310238838196,
        -0.9983648657798767,
        -0.9992077350616455
      ],
      "type": "VEC3"
    },
    {
      "bufferView": 1,
      "byteOffset": 23816,
      "componentType": 5126,
      "count": 548,
      "max": [
        0.9916989803314209,
        1.9936070442199707
      ],
      "min": [
        0.008063999935984612,
        1.0097659826278687
      ],
      "type": "VEC2"
    },
    {
      "bufferView": 0,
      "byteOffset": 60288,
      "componentType": 5125,
      "count": 3168,
      "type": "SCALAR"
    },
    {
      "bufferView": 2,
      "byteOffset": 84600,
      "componentType": 5126,
      "count": 519,
      "max": [
        4.581996917724609,
        -108.07400512695313,
        -1.2488139867782593
      ],
      "min": [
        -0.0882280021905899,
        -112.73060607910156,
        -5.870631217956543
      ],
      "type": "VEC3"
    },
    {
      "bufferView": 2,
      "byteOffset": 90828,
      "componentType": 5126,
      "count": 519,
      "max": [
        0.9991310238838196,
        0.9983636140823364,
        0.9987859129905701
      ],
      "min": [
        -0.9979856610298157,
        -0.9983646869659424,
        -0.9974766969680786
      ],
      "type": "VEC3"
    },
    {
      "bufferView": 1,
      "byteOffset": 28200,
      "componentType": 5126,
      "count": 519,
      "max": [
        0.9916989803314209,
        1.9936070442199707
      ],
      "min": [
        0.008063999935984612,
        1.0097659826278687
      ],
      "type": "VEC2"
    },
    {
      "bufferView": 0,
      "byteOffset": 72960,
      "componentType": 5125,
      "count": 3060,
      "type": "SCALAR"
    },
    {
      "bufferView": 2,
      "byteOffset": 97056,
      "componentType": 5126,
      "count": 16736,
      "max": [
        9.209657669067383,
        -101.08000183105469,
        12.206089973449707
      ],
      "min": [
        -8.979313850402832,
        -125.00550079345703,
        -9.188366889953613
      ],
      "type": "VEC3"
    },
    {
      "bufferView": 2,
      "byteOffset": 297888,
      "componentType": 5126,
      "count": 16736,
      "max": [
        0.9999259114265442,
        0.9999576807022095,
        0.9999743700027466
      ],
      "min": [
        -0.9998664259910583,
        -0.9998126029968262,
        -0.9996922016143799
      ],
      "type": "VEC3"
    },
    {
      "bufferView": 1,
      "byteOffset": 32352,
      "componentType": 5126,
      "count": 16736,
      "max": [
        0.8999019861221313,
        1.950011968612671
      ],
      "min": [
        0.09997600317001343,
        1.05029296875
      ],
      "type": "VEC2"
    },
    {
      "bufferView": 0,
      "byteOffset": 85200,
      "componentType": 5125,
      "count": 72528,
      "type": "SCALAR"
    },
    {
      "bufferView": 2,
      "byteOffset": 498720,
      "componentType": 5126,
      "count": 1556,
      "max": [
        2.95198392868042,
        -104.18326568603516,
        -0.5004299879074097
      ],
      "min": [
        -2.95198392868042,
        -107.57884216308594,
        -5.922429084777832
      ],
      "type": "VEC3"
    },
    {
      "bufferView": 2,
      "byteOffset": 517392,
      "componentType": 5126,
      "count": 1556,
      "max": [
        0.9999221563339233,
        0.9996801614761353,
        0.9929685592651367
      ],
      "min": [
        -0.9999222755432129,
        -0.9999336004257202,
        -0.9996477961540222
      ],
      "type": "VEC3"
    },
    {
      "bufferView": 1,
      "byteOffset": 166240,
      "componentType": 5126,
      "count": 1556,
      "max": [
        0.8090819716453552,
        1.9880750179290771
      ],
      "min": [
        0.028152000159025192,
        1.0449219942092896
      ],
      "type": "VEC2"
    },
    {
      "bufferView": 0,
      "byteOffset": 375312,
      "componentType": 5125,
      "count": 5508,
      "type": "SCALAR"
    },
    {
      "bufferView": 2,
      "byteOffset": 536064,
      "componentType": 5126,
      "count": 4136,
      "max": [
        21.10906982421875,
        -29.88501739501953,
        12.965794563293457
      ],
      "min": [
        -20.412193298339844,
        -80.8471450805664,
        -18.502704620361328
      ],
      "type": "VEC3"
    },
    {
      "bufferView": 2,
      "byteOffset": 585696,
      "componentType": 5126,
      "count": 4136,
      "max": [
        0.9988382458686829,
        0.9997426271438599,
        0.9999949336051941
      ],
      "min": [
        -0.9992602467536926,
        -0.9968047142028809,
        -0.9999924302101135
      ],
      "type": "VEC3"
    },
    {
      "bufferView": 1,
      "byteOffset": 178688,
      "componentType": 5126,
      "count": 4136,
      "max": [
        0.984375,
        1.9792790412902832
      ],
      "min": [
        0.015266000293195248,
        1.015136957168579
      ],
      "type": "VEC2"
    },
    {
      "bufferView": 0,
      "byteOffset": 397344,
      "componentType": 5125,
      "count": 21456,
      "type": "SCALAR"
    },
    {
      "bufferView": 2,
      "byteOffset": 635328,
      "componentType": 5126,
      "count": 3344,
      "max": [
        21.848939895629883,
        -0.9057220220565796,
        7.777095794677734
      ],
      "min": [
        -21.848939895629883,
        -71.51600646972656,
        -14.201916694641113
      ],
      "type": "VEC3"
    },
    {
      "bufferView": 2,
      "byteOffset": 675456,
      "componentType": 5126,
      "count": 3344,
      "max": [
        0.9999364614486694,
        1.0,
        0.9999555945396423
      ],
      "min": [
        -0.9999364614486694,
        -1.0,
        -0.9999451637268066
      ],
      "type": "VEC3"
    },
    {
      "bufferView": 1,
      "byteOffset": 211776,
      "componentType": 5126,
      "count": 3344,
      "max": [
        0.9838870167732239,
        1.9927560091018677
      ],
      "min": [
        0.014937999658286572,
        1.0058590173721313
      ],
      "type": "VEC2"
    },
    {
      "bufferView": 0,
      "byteOffset": 483168,
      "componentType": 5125,
      "count": 13674,
      "type": "SCALAR"
    },
    {
      "bufferView": 2,
      "byteOffset": 715584,
      "componentType": 5126,
      "count": 3778,
      "max": [
        46.25547790527344,
        -1.8258739709854126,
        5.617362022399902
      ],
      "min": [
        -46.25547409057617,
        -107.75579833984375,
        -13.867040634155273
      ],
      "type": "VEC3"
    },
    {
      "bufferView": 2,
      "byteOffset": 760920,
      "componentType": 5126,
      "count": 3778,
      "max": [
        0.9998376965522766,
        0.9997453689575195,
        0.9996874928474426
      ],
      "min": [
        -0.9998376965522766,
        -0.9740452170372009,
        -0.9999455809593201
      ],
      "type": "VEC3"
    },
    {
      "bufferView": 1,
      "byteOffset": 238528,
      "componentType": 5126,
      "count": 3778,
      "max": [
        0.9902340173721313,
        1.9934879541397095
      ],
      "min": [
        0.01046799961477518,
        1.008301019668579
      ],
      "type": "VEC2"
    },
    {
      "bufferView": 0,
      "byteOffset": 537864,
      "componentType": 5125,
      "count": 17610,
      "type": "SCALAR"
    },
    {
      "bufferView": 2,
      "byteOffset": 806256,
      "componentType": 5126,
      "count": 2087,
      "max": [
        38.34989929199219,
        -69.25707244873047,
        8.26873779296875
      ],
      "min": [
        -38.34989929199219,
        -107.56614685058594,
        -9.858695983886719
      ],
      "type": "VEC3"
    },
    {
      "bufferView": 2,
      "byteOffset": 831300,
      "componentType": 5126,
      "count": 2087,
      "max": [
        0.9998745322227478,
        0.9954617619514465,
        0.9996040463447571
      ],
      "min": [
        -0.9996597170829773,
        -0.995518147945404,
        -0.9999268651008606
      ],
      "type": "VEC3"
    },
    {
      "bufferView": 1,
      "byteOffset": 268752,
      "componentType": 5126,
      "count": 2087,
      "max": [
        0.9853519797325134,
        1.9863430261611938
      ],
      "min": [
        0.012389999814331532,
        1.0126949548721313
      ],
      "type": "VEC2"
    },
    {
      "bufferView": 0,
      "byteOffset": 608304,
      "componentType": 5125,
      "count": 8712,
      "type": "SCALAR"
    },
    {
      "bufferView": 2,
      "byteOffset": 856344,
      "componentType": 5126,
      "count": 324,
      "max": [
        27.109561920166016,
        -30.52057647705078,
        13.513338088989258
      ],
      "min": [
        -21.379520416259766,
        -97.71054077148438,
        6.547612190246582
      ],
      "type": "VEC3"
    },
    {
      "bufferView": 2,
      "byteOffset": 860232,
      "componentType": 5126,
      "count": 324,
      "max": [
        0.998879075050354,
        0.995599627494812,
        0.9981640577316284
      ],
      "min": [
        -0.9992334246635437,
        -0.947674036026001,
        -0.9974166750907898
      ],
      "type": "VEC3"
    },
    {
      "bufferView": 1,
      "byteOffset": 285448,
      "componentType": 5126,
      "count": 324,
      "max": [
        0.9711909890174866,
        1.9779510498046875
      ],
      "min": [
        0.025665000081062317,
        1.191406011581421
      ],
      "type": "VEC2"
    },
    {
      "bufferView": 0,
      "byteOffset": 643152,
      "componentType": 5125,
      "count": 1026,
      "type": "SCALAR"
    }
  ],
  "asset": {
    "extras": {
      "author": "langifoaga (https://sketchfab.com/langifoaga)",
      "license": "CC-BY-4.0 (http://creativecommons.org/licenses/by/4.0/)",
      "source": "https://sketchfab.com/3d-models/sasuke-eac52e1fd006488f801a914988f807c1",
      "title": "sasuke"
    },
    "generator": "Sketchfab-15.58.0",
    "version": "2.0"
  },
  "bufferViews": [
    {
      "buffer": 0,
      "byteLength": 647256,
      "name": "floatBufferViews",
      "target": 34963
    },
    {
      "buffer": 0,
      "byteLength": 288040,
      "byteOffset": 647256,
      "byteStride": 8,
      "name": "floatBufferViews",
      "target": 34962
    },
    {
      "buffer": 0,
      "byteLength": 864120,
      "byteOffset": 935296,
      "byteStride": 12,
      "name": "floatBufferViews",
      "target": 34962
    }
  ],
  "buffers": [
    {
      "byteLength": 1799416,
      "uri": "scene.bin"
    }
  ],
  "extensionsUsed": [
    "KHR_materials_specular"
  ],
  "images": [
    {
      "uri": "textures/Model001_Material010_baseColor.png"
    },
    {
      "uri": "textures/Model001_Material012_baseColor.png"
    },
    {
      "uri": "textures/cloth_baseColor.png"
    },
    {
      "uri": "textures/face_baseColor.png"
    },
    {
      "uri": "textures/hair_baseColor.png"
    },
    {
      "uri": "textures/maint_baseColor.png"
    },
    {
      "uri": "textures/pants_baseColor.png"
    },
    {
      "uri": "textures/skin_baseColor.png"
    },
    {
      "uri": "textures/weapon_baseColor.png"
    }
  ],
  "materials": [
    {
      "doubleSided": true,
      "name": "Model001_Material009",
      "pbrMetallicRoughness": {
        "metallicFactor": 0.0,
        "roughnessFactor": 0.6
      }
    },
    {
      "doubleSided": true,
      "name": "Model001_Material010",
      "pbrMetallicRoughness": {
        "baseColorTexture": {
          "index": 0
        },
        "metallicFactor": 0.0,
        "roughnessFactor": 0.6
      }
    },
    {
      "doubleSided": true,
      "name": "Model001_Material012",
      "pbrMetallicRoughness": {
        "baseColorTexture": {
          "index": 1
        },
        "metallicFactor": 0.0,
        "roughnessFactor": 0.6
      }
    },
    {
      "doubleSided": true,
      "extensions": {
        "KHR_materials_specular": {
          "specularColorFactor": [
            1.0,
            1.0,
            1.0
          ],
          "specularFactor": 0.0
        }
      },
      "name": "cloth",
      "pbrMetallicRoughness": {
        "baseColorTexture": {
          "index": 2
        },
        "metallicFactor": 0.0,
        "roughnessFactor": 0.6
      }
    },
    {
      "doubleSided": true,
      "extensions": {
        "KHR_materials_specular": {
          "specularColorFactor": [
            1.0,
            1.0,
            1.0
          ],
          "specularFactor": 0.0
        }
      },
      "name": "face",
      "pbrMetallicRoughness": {
        "baseColorTexture": {
          "index": 3
        },
        "metallicFactor": 0.0,
        "roughnessFactor": 0.6
      }
    },
    {
      "doubleSided": true,
      "extensions": {
        "KHR_materials_specular": {
          "specularColorFactor": [
            1.0,
            1.0,
            1.0
          ],
          "specularFactor": 0.0
        }
      },
      "name": "hair",
      "pbrMetallicRoughness": {
        "baseColorTexture": {
          "index": 4
        },
        "metallicFactor": 0.0
      }
    },
    {
      "doubleSided": true,
      "extensions": {
        "KHR_materials_specular": {
          "specularColorFactor": [
            1.0,
            1.0,
            1.0
          ],
          "specularFactor": 0.0
        }
      },
      "name": "maint",
      "pbrMetallicRoughness": {
        "baseColorTexture": {
          "index": 5
        },
        "metallicFactor": 0.0,
        "roughnessFactor": 0.6
      }
    },
    {
      "doubleSided": true,
      "extensions": {
        "KHR_materials_specular": {
          "specularColorFactor": [
            1.0,
            1.0,
            1.0
          ],
          "specularFactor": 0.0
        }
      },
      "name": "pants",
      "pbrMetallicRoughness": {
        "baseColorTexture": {
          "index": 6
        },
        "metallicFactor": 0.0,
        "roughnessFactor": 0.6
      }
    },
    {
      "doubleSided": true,
      "extensions": {
        "KHR_materials_specular": {
          "specularColorFactor": [
            1.0,
            1.0,
            1.0
          ],
          "specularFactor": 0.0
        }
      },
      "name": "skin",
      "pbrMetallicRoughness": {
        "baseColorTexture": {
          "index": 7
        },
        "metallicFactor": 0.0,
        "roughnessFactor": 0.6
      }
    },
    {
      "doubleSided": true,
      "extensions": {
        "KHR_materials_specular": {
          "specularColorFactor": [
            1.0,
            1.0,
            1.0
          ],
          "specularFactor": 0.0
        }
      },
      "name": "weapon",
      "pbrMetallicRoughness": {
        "baseColorTexture": {
          "index": 8
        },
        "metallicFactor": 0.0,
        "roughnessFactor": 0.6
      }
    }
  ],
  "meshes": [
    {
      "name": "Object_0",
      "primitives": [
        {
          "attributes": {
            "NORMAL": 1,
            "POSITION": 0,
            "TEXCOORD_0": 2
          },
          "indices": 3,
          "material": 4,
          "mode": 4
        }
      ]
    },
    {
      "name": "Object_1",
      "primitives": [
        {
          "attributes": {
            "NORMAL": 5,
            "POSITION": 4,
            "TEXCOORD_0": 6
          },
          "indices": 7,
          "material": 1,
          "mode": 4
        }
      ]
    },
    {
      "name": "Object_2",
      "primitives": [
        {
          "attributes": {
            "NORMAL": 9,
            "POSITION": 8,
            "TEXCOORD_0": 10
          },
          "indices": 11,
          "material": 2,
          "mode": 4
        }
      ]
    },
    {
      "name": "Object_3",
      "primitives": [
        {
          "attributes": {
            "NORMAL": 13,
            "POSITION": 12,
            "TEXCOORD_0": 14
          },
          "indices": 15,
          "material": 5,
          "mode": 4
        }
      ]
    },
    {
      "name": "Object_4",
      "primitives": [
        {
          "attributes": {
            "NORMAL": 17,
            "POSITION": 16,
            "TEXCOORD_0": 18
          },
          "indices": 19,
          "material": 0,
          "mode": 4
        }
      ]
    },
    {
      "name": "Object_5",
      "primitives": [
        {
          "attributes": {
            "NORMAL": 21,
            "POSITION": 20,
            "TEXCOORD_0": 22
          },
          "indices": 23,
          "material": 6,
          "mode": 4
        }
      ]
    },
    {
      "name": "Object_6",
      "primitives": [
        {
          "attributes": {
            "NORMAL": 25,
            "POSITION": 24,
            "TEXCOORD_0": 26
          },
          "indices": 27,
          "material": 7,
          "mode": 4
        }
      ]
    },
    {
      "name": "Object_7",
      "primitives": [
        {
          "attributes": {
            "NORMAL": 29,
            "POSITION": 28,
            "TEXCOORD_0": 30
          },
          "indices": 31,
          "material": 8,
          "mode": 4
        }
      ]
    },
    {
      "name": "Object_8",
      "primitives": [
        {
          "attributes": {
            "NORMAL": 33,
            "POSITION": 32,
            "TEXCOORD_0": 34
          },
          "indices": 35,
          "material": 3,
          "mode": 4
        }
      ]
    },
    {
      "name": "Object_9",
      "primitives": [
        {
          "attributes": {
            "NORMAL": 37,
            "POSITION": 36,
            "TEXCOORD_0": 38
          },
          "indices": 39,
          "material": 9,
          "mode": 4
        }
      ]
    }
  ],
  "nodes": [
    {
      "children": [
        1
      ],
      "matrix": [
        1.0,
        2.8327693431939995e-16,
        -2.2204460492503123e-16,
        0.0,
        2.832769343193999e-16,
        -1.0,
        -4.440892098500626e-16,
        0.0,
        -2.220446049250313e-16,
        4.440892098500626e-16,
        -1.0,
        0.0,
        0.0,
        0.0,
        0.0,
        1.0
      ],
      "name": "Sketchfab_model"
    },
    {
      "children": [
        2,
        3,
        4,
        5,
        6,
        7,
        8,
        9,
        10,
        11
      ],
      "name": "sasuke.obj.cleaner.materialmerger.gles"
    },
    {
      "mesh": 0,
      "name": "Object_2"
    },
    {
      "mesh": 1,
      "name": "Object_3"
    },
    {
      "mesh": 2,
      "name": "Object_4"
    },
    {
      "mesh": 3,
      "name": "Object_5"
    },
    {
      "mesh": 4,
      "name": "Object_6"
    },
    {
      "mesh": 5,
      "name": "Object_7"
    },
    {
      "mesh": 6,
      "name": "Object_8"
    },
    {
      "mesh": 7,
      "name": "Object_9"
    },
    {
      "mesh": 8,
      "name": "Object_10"
    },
    {
      "mesh": 9,
      "name": "Object_11"
    }
  ],
  "samplers": [
    {
      "magFilter": 9729,
      "minFilter": 9987,
      "wrapS": 10497,
      "wrapT": 10497
    }
  ],
  "scene": 0,
  "scenes": [
    {
      "name": "Sketchfab_Scene",
      "nodes": [
        0
      ]
    }
  ],
  "textures": [
    {
      "sampler": 0,
      "source": 0
    },
    {
      "sampler": 0,
      "source": 1
    },
    {
      "sampler": 0,
      "source": 2
    },
    {
      "sampler": 0,
      "source": 3
    },
    {
      "sampler": 0,
      "source": 4
    },
    {
      "sampler": 0,
      "source": 5
    },
    {
      "sampler": 0,
      "source": 6
    },
    {
      "sampler": 0,
      "source": 7
    },
    {
      "sampler": 0,
      "source": 8
    }
  ]
}
